<svg width="1222" height="256" viewBox="0 0 1222 256" fill="none" xmlns="http://www.w3.org/2000/svg">
<path d="M77.5167 18.6587C86.165 12.9981 94.5738 7.6319 102.914 2.16097C107.429 -0.801076 112.184 -0.623151 116.323 2.11396C149.073 23.7731 181.72 45.5885 214.324 67.467C219.501 70.9408 220.764 76.5195 217.81 82.228C215.231 87.2123 208.193 89.2941 203.101 86.2316C194.137 80.8408 185.457 74.9709 176.742 69.1756C155.486 55.0416 134.221 40.9216 113.122 26.5566C110.279 24.6207 108.425 24.7897 105.865 26.4936C76.9905 45.7108 48.0819 64.877 19.166 84.0322C17.398 85.2034 15.6029 86.4968 13.6279 87.16C8.94831 88.7314 3.08727 86.0905 1.08655 81.8211C-1.04598 77.2704 0.287085 70.0202 4.06552 67.5006C28.4273 51.2547 52.8476 35.0965 77.5167 18.6587Z" fill="#008AB5"/>
<path d="M201.641 196.733C173.043 215.847 144.786 234.816 116.414 253.613C112.186 256.415 107.388 256.637 102.909 253.671C70.2618 232.051 37.6194 210.422 5.00187 188.756C0.114614 185.51 -1.48761 177.817 1.52446 172.964C4.44495 168.258 11.0273 166.666 16.4853 170.159C30.3961 179.062 44.0813 188.318 57.8386 197.46C73.7995 208.067 89.7846 218.638 105.65 229.385C108.455 231.286 110.407 231.051 113.129 229.225C141.953 209.885 170.861 190.669 199.762 171.444C208.057 165.927 216.072 167.987 218.66 176.222C220.131 180.902 218.554 185.507 214.356 188.36C210.259 191.144 206.085 193.812 201.641 196.733Z" fill="#575656"/>
<path d="M28.337 115.829C30.6643 112.575 32.4424 108.964 35.3384 107.007C57.6647 91.9218 80.2369 77.2012 102.659 62.2575C107.342 59.137 112.014 59.258 116.363 62.124C139.14 77.134 161.802 92.3173 184.478 107.479C190.33 111.391 192.333 118.83 189.047 123.914C185.756 129.005 178.372 129.97 172.255 125.928C152.513 112.884 132.748 99.873 113.171 86.585C110.295 84.633 108.442 84.7944 105.856 86.5151C86.0184 99.7165 66.0734 112.758 46.3072 126.064C42.2743 128.779 38.2887 129.424 34.2599 127.278C30.0754 125.05 27.5541 121.392 28.337 115.829Z" fill="#007599"/>
<path d="M155.372 161.148C151.7 167.756 144.871 169.376 138.81 165.416C130.114 159.733 121.355 154.142 112.765 148.302C110.15 146.524 108.232 146.639 105.694 148.402C97.7029 153.953 89.5856 159.325 81.4493 164.663C73.3495 169.978 65.0121 167.541 62.7111 159.242C61.3443 154.313 63.1422 150.264 67.1281 147.532C78.6896 139.608 90.4277 131.941 102.082 124.151C106.835 120.974 111.567 120.88 116.356 124.043C127.639 131.495 138.949 138.908 150.208 146.396C156.157 150.352 157.332 153.705 155.372 161.148Z" fill="#005E7B"/>
<path d="M1221.72 204.167C1217.78 206.418 1214.46 209.35 1209.42 208.785C1203.28 208.098 1199.71 206.063 1197.71 199.943C1194.59 190.373 1191.58 180.768 1188.35 170.633C1182.52 170.633 1176.73 170.633 1170.94 170.633C1159.78 170.634 1148.62 170.74 1137.47 170.57C1134.15 170.52 1132.5 171.399 1131.48 174.828C1128.84 183.683 1125.71 192.393 1122.7 201.135C1120.37 207.909 1114.13 210.65 1106.41 208.412C1101.2 206.9 1097.75 200.433 1099.73 194.342C1105.34 177.086 1111.27 159.934 1117.17 142.773C1126.98 114.21 1137 85.7142 1146.67 57.1025C1150.41 46.0224 1159.99 43.83 1168.3 48.7857C1171.27 50.5633 1173.37 54.7807 1174.63 58.3249C1184.14 85.0685 1193.32 111.933 1202.66 138.737C1208.31 154.941 1214.07 171.106 1219.82 187.276C1220.02 187.836 1220.58 188.264 1221.35 188.693C1221.72 193.655 1221.72 198.678 1221.72 204.167ZM1143.23 138.629C1142.38 141.402 1141.54 144.175 1140.61 147.208C1154.26 147.208 1167.25 147.208 1180.68 147.208C1174.12 127.074 1167.74 107.455 1161.35 87.8356C1160.8 87.817 1160.26 87.7983 1159.71 87.7797C1154.33 104.49 1148.95 121.2 1143.23 138.629Z" fill="#575656"/>
<path d="M968.962 63.4163C979.995 82.455 990.784 101.215 1001.59 119.967C1003.07 122.54 1004.63 125.068 1006.15 127.621C1007.82 130.411 1009.26 130.113 1010.79 127.436C1017.41 115.806 1024.02 104.173 1030.75 92.6035C1038.64 79.0378 1046.54 65.4835 1054.62 52.0341C1057.73 46.871 1064.75 44.847 1070.85 46.8292C1075.26 48.2635 1077.72 52.5121 1077.72 58.8429C1077.73 104.657 1077.73 150.472 1077.72 196.286C1077.72 204.661 1073.85 208.624 1065.77 208.632C1057.66 208.639 1053.73 204.629 1053.73 196.257C1053.72 167.102 1053.72 137.948 1053.72 108.793C1053.72 106.901 1053.72 105.01 1053.72 103.118C1053.28 103.051 1052.83 102.985 1052.39 102.918C1048.83 109.164 1045.29 115.42 1041.71 121.653C1034.22 134.688 1026.96 147.857 1019.14 160.689C1013.43 170.054 1001.53 169.217 996.187 159.634C985.969 141.305 975.6 123.06 965.276 104.79C964.904 104.132 964.341 103.583 962.722 103.15C962.722 105.031 962.722 106.911 962.722 108.791C962.722 137.946 962.729 167.1 962.718 196.255C962.714 204.628 958.786 208.639 950.674 208.632C942.436 208.624 938.73 204.858 938.728 196.386C938.717 150.572 938.722 104.757 938.723 58.9431C938.724 52.5625 941.142 48.1518 945.319 46.879C952.624 44.6535 959.263 46.9027 962.769 52.8359C964.786 56.25 966.741 59.7008 968.962 63.4163Z" fill="#575656"/>
<path d="M576.722 183.632C576.722 143.495 576.72 103.857 576.723 64.2192C576.724 53.5371 581.701 48.6363 592.542 48.6343C607.697 48.6314 622.862 48.3118 638.005 48.7405C649.372 49.0623 659.874 52.9412 668.164 60.8234C675.529 67.8269 679.914 77.0144 680.483 87.135C680.922 94.9571 680.415 103.129 678.568 110.717C675.453 123.509 666.55 131.653 654.136 135.936C652.898 136.363 651.688 136.875 650.477 137.376C650.176 137.5 649.919 137.733 649.264 138.166C655.727 148.792 662.289 159.381 668.643 170.093C673.166 177.719 678.047 185.233 681.568 193.32C684.226 199.426 680.868 205.76 675.48 208.183C670.05 210.626 662.015 208.114 658.821 202.821C646.969 183.175 635.199 163.478 623.287 143.869C622.466 142.516 620.776 140.884 619.41 140.807C613.466 140.471 607.492 140.663 601.025 140.663C600.909 143.054 600.737 144.987 600.735 146.92C600.713 163.908 600.739 180.896 600.713 197.883C600.701 205.376 597.328 208.606 589.632 208.632C581.362 208.66 576.835 204.826 576.736 197.622C576.674 193.126 576.723 188.628 576.722 183.632ZM601.069 72.6175C601.069 87.817 601.069 103.016 601.069 117.632C613.367 117.632 625.173 118.472 636.808 117.416C650.952 116.133 655.954 107.398 656.551 95.5896C657.176 83.2368 648.07 72.4012 636.61 71.8197C625.017 71.2315 613.362 71.869 601.069 72.6175Z" fill="#575656"/>
<path d="M456.57 196.414C456.218 194.059 455.756 192.109 455.754 190.158C455.713 148.503 455.716 106.848 455.727 65.1932C455.73 54.0981 461.131 48.638 472.047 48.6352C493.542 48.6297 515.036 48.6585 536.53 48.6149C541.285 48.6053 545.462 49.503 547.595 54.3757C549.77 59.3453 549.435 64.4053 546.019 68.3934C544.382 70.3045 540.876 71.4506 538.193 71.4937C521.202 71.7662 504.204 71.633 487.209 71.6337C485.264 71.6337 483.318 71.6337 481.057 71.6337C481.057 85.5287 481.057 98.7478 481.057 112.633C483.329 112.633 485.276 112.633 487.222 112.633C502.385 112.633 517.552 112.858 532.708 112.545C540.961 112.374 546.646 117.765 546.534 124.789C546.42 132.001 540.509 136.861 532.892 136.717C517.735 136.431 502.569 136.633 487.407 136.634C485.44 136.634 483.474 136.634 481.122 136.634C481.122 152.384 481.122 167.604 481.122 183.35C483.153 183.448 485.088 183.618 487.023 183.621C504.352 183.642 521.68 183.617 539.009 183.643C546.137 183.653 550.605 188 550.712 194.913C550.822 202.041 546.271 206.618 538.949 206.624C516.122 206.646 493.295 206.646 470.468 206.624C463.289 206.617 459.422 203.821 456.57 196.414Z" fill="#575656"/>
<path d="M889.056 188.292C886.947 182.322 886.563 174.694 882.639 171.689C878.902 168.827 871.47 170.692 865.662 170.655C854.497 170.583 843.33 170.726 832.167 170.579C829.029 170.537 827.496 171.508 826.534 174.645C823.822 183.486 820.737 192.214 817.736 200.966C815.331 207.98 808.681 210.884 801.087 208.323C795.842 206.554 792.632 199.428 794.682 193.487C808.796 152.584 822.982 111.705 837.124 70.812C838.798 65.9727 840.253 61.057 841.974 56.2352C845.664 45.8947 854.998 43.9068 863.247 48.7694C866.233 50.5301 868.359 54.7415 869.619 58.2824C879.029 84.7333 888.086 111.309 897.329 137.82C903.364 155.129 909.869 172.285 915.391 189.753C916.807 194.233 916.492 200.09 914.824 204.501C912.814 209.817 906.797 208.891 902.018 208.547C897.352 208.211 894.595 204.934 893.01 200.949C891.43 196.978 890.467 192.761 889.056 188.292ZM854.548 89.2511C848.172 108.436 841.796 127.622 835.277 147.235C849.211 147.235 862.218 147.235 875.656 147.235C874.588 143.953 873.674 141.154 872.765 138.354C867.726 122.822 862.725 107.278 857.583 91.7801C857.176 90.5521 855.8 89.6455 854.548 89.2511Z" fill="#575656"/>
<path d="M322.795 75.51C321.357 70.3591 320.175 65.541 318.589 60.8599C316.309 54.1319 321.077 48.517 325.588 46.8873C332.65 44.3357 339.79 47.4518 341.896 54.1249C351.284 83.8708 360.504 113.67 369.831 143.435C372.131 150.775 374.604 158.061 378.248 165.429C379.138 162.393 379.989 159.346 380.924 156.324C387.997 133.461 395.105 110.61 402.161 87.7423C405.42 77.1792 408.658 66.6086 411.768 56.0009C414.107 48.0219 420.505 44.5141 428.931 46.8295C435.045 48.5098 438.16 54.7135 435.903 62.1365C429.9 81.8797 423.617 101.538 417.419 121.222C409.734 145.627 401.965 170.007 394.346 194.433C390.663 206.242 385.267 210.143 372.98 208.515C366.643 207.676 363.644 202.632 361.767 197.114C358.63 187.892 355.73 178.59 352.76 169.313C342.79 138.179 332.833 107.041 322.795 75.51Z" fill="#575656"/>
<path d="M761.722 125.633C761.722 149.13 761.751 172.127 761.706 195.124C761.688 204.47 757.515 208.683 748.574 208.632C741.256 208.591 736.764 204.026 736.74 196.384C736.689 179.72 736.723 163.056 736.722 146.391C736.722 123.728 736.722 101.064 736.722 78.4004C736.722 76.4294 736.722 74.4583 736.722 71.9762C734.518 71.8446 732.754 71.6543 730.99 71.6483C721.658 71.617 712.326 71.6704 702.994 71.6187C695.897 71.5793 691.694 67.1802 691.725 59.9722C691.754 53.1034 696.006 48.6609 702.816 48.6526C733.812 48.6148 764.808 48.611 795.804 48.6563C802.534 48.6662 806.743 53.4403 806.717 60.7114C806.694 67.0968 802.254 71.5692 795.711 71.6144C786.379 71.6789 777.047 71.6195 767.715 71.6456C765.93 71.6506 764.145 71.8062 761.722 71.923C761.722 89.9096 761.722 107.521 761.722 125.633Z" fill="#575656"/>
</svg>
