<svg width="220" height="256" viewBox="0 0 220 256" fill="none" xmlns="http://www.w3.org/2000/svg">
<path d="M77.5167 18.6587C86.165 12.9981 94.5738 7.6319 102.914 2.16097C107.429 -0.801076 112.184 -0.623151 116.323 2.11396C149.073 23.7731 181.72 45.5885 214.324 67.467C219.501 70.9408 220.764 76.5195 217.81 82.228C215.231 87.2123 208.193 89.2941 203.101 86.2316C194.137 80.8408 185.457 74.9709 176.742 69.1756C155.486 55.0416 134.221 40.9216 113.122 26.5566C110.279 24.6207 108.425 24.7897 105.865 26.4936C76.9905 45.7108 48.0819 64.877 19.166 84.0322C17.398 85.2034 15.6029 86.4968 13.6279 87.16C8.94831 88.7314 3.08727 86.0905 1.08655 81.8211C-1.04598 77.2704 0.287085 70.0202 4.06552 67.5006C28.4273 51.2547 52.8476 35.0965 77.5167 18.6587Z" fill="#008AB5"/>
<path d="M201.641 196.733C173.043 215.847 144.786 234.816 116.414 253.613C112.186 256.414 107.388 256.637 102.909 253.671C70.2618 232.051 37.6194 210.422 5.00187 188.756C0.114614 185.51 -1.48761 177.817 1.52446 172.964C4.44495 168.258 11.0273 166.666 16.4853 170.159C30.3961 179.062 44.0813 188.318 57.8386 197.46C73.7995 208.067 89.7846 218.638 105.65 229.385C108.455 231.286 110.407 231.051 113.129 229.225C141.953 209.885 170.861 190.669 199.762 171.444C208.057 165.926 216.072 167.987 218.66 176.222C220.131 180.902 218.554 185.507 214.356 188.36C210.259 191.143 206.085 193.812 201.641 196.733Z" fill="#575656"/>
<path d="M28.337 115.829C30.6643 112.575 32.4424 108.964 35.3384 107.007C57.6647 91.9218 80.2369 77.2012 102.659 62.2575C107.342 59.137 112.014 59.258 116.363 62.124C139.14 77.134 161.802 92.3173 184.478 107.479C190.33 111.391 192.333 118.83 189.047 123.914C185.756 129.005 178.372 129.97 172.255 125.928C152.513 112.884 132.748 99.873 113.171 86.585C110.295 84.633 108.442 84.7944 105.856 86.5151C86.0184 99.7165 66.0734 112.758 46.3072 126.064C42.2743 128.779 38.2887 129.424 34.2599 127.278C30.0754 125.05 27.5541 121.392 28.337 115.829Z" fill="#007599"/>
<path d="M155.372 161.148C151.7 167.756 144.871 169.376 138.81 165.416C130.114 159.733 121.355 154.142 112.765 148.302C110.15 146.524 108.232 146.638 105.694 148.402C97.7029 153.953 89.5856 159.325 81.4493 164.663C73.3495 169.977 65.0121 167.541 62.7111 159.242C61.3443 154.313 63.1422 150.264 67.1281 147.532C78.6896 139.608 90.4277 131.941 102.082 124.151C106.835 120.974 111.567 120.88 116.356 124.043C127.639 131.495 138.949 138.908 150.208 146.396C156.157 150.352 157.332 153.705 155.372 161.148Z" fill="#005E7B"/>
</svg>
